<svg width="16" height="16" viewBox="0 0 16 16" fill="none" xmlns="http://www.w3.org/2000/svg">
<path d="M10.5455 11.3635V10.5453C10.5455 10.1113 10.3731 9.69509 10.0662 9.38822C9.7593 9.08134 9.34308 8.90894 8.90909 8.90894H5.63636C5.20237 8.90894 4.78616 9.08134 4.47928 9.38822C4.1724 9.69509 4 10.1113 4 10.5453V11.3635" stroke="#4A94BD" stroke-width="1.2" stroke-linecap="round" stroke-linejoin="round"/>
<path d="M7.27284 7.27273C8.17658 7.27273 8.9092 6.5401 8.9092 5.63636C8.9092 4.73262 8.17658 4 7.27284 4C6.3691 4 5.63647 4.73262 5.63647 5.63636C5.63647 6.5401 6.3691 7.27273 7.27284 7.27273Z" stroke="#4A94BD" stroke-width="1.2" stroke-linecap="round" stroke-linejoin="round"/>
<path d="M12.9992 11.3643V10.5461C12.999 10.1835 12.8783 9.8313 12.6562 9.54475C12.434 9.2582 12.123 9.05353 11.772 8.96289" stroke="#4A94BD" stroke-width="1.2" stroke-linecap="round" stroke-linejoin="round"/>
<path d="M10.1365 4.05347C10.4885 4.14359 10.8004 4.3483 11.0232 4.63532C11.246 4.92234 11.367 5.27535 11.367 5.63869C11.367 6.00204 11.246 6.35505 11.0232 6.64207C10.8004 6.92909 10.4885 7.1338 10.1365 7.22392" stroke="#4A94BD" stroke-width="1.2" stroke-linecap="round" stroke-linejoin="round"/>
</svg>
