<svg width="16" height="16" viewBox="0 0 16 16" fill="none" xmlns="http://www.w3.org/2000/svg">
<path d="M8.00001 15L3.78201 10.0255C3.7234 9.95081 3.66539 9.87564 3.60801 9.8C2.8875 8.85089 2.49826 7.69161 2.50001 6.5C2.50001 5.04131 3.07947 3.64236 4.11092 2.61091C5.14237 1.57946 6.54132 1 8.00001 1C9.4587 1 10.8576 1.57946 11.8891 2.61091C12.9205 3.64236 13.5 5.04131 13.5 6.5C13.5018 7.69107 13.1127 8.84982 12.3925 9.7985L12.392 9.8C12.392 9.8 12.242 9.997 12.2195 10.0235L8.00001 15ZM4.40601 9.1975C4.40701 9.1975 4.52301 9.3515 4.54951 9.3845L8.00001 13.454L11.455 9.379C11.477 9.3515 11.594 9.1965 11.5945 9.196C12.1831 8.42056 12.5012 7.47352 12.5 6.5C12.5 5.30653 12.0259 4.16193 11.182 3.31802C10.3381 2.47411 9.19348 2 8.00001 2C6.80653 2 5.66194 2.47411 4.81803 3.31802C3.97411 4.16193 3.50001 5.30653 3.50001 6.5C3.49896 7.47412 3.81739 8.42171 4.40651 9.1975H4.40601Z" fill="#4A94BD"/>
<path d="M10.5 9H9.5V5H6.5V9H5.5V5C5.50026 4.73486 5.60571 4.48066 5.79319 4.29319C5.98066 4.10571 6.23486 4.00026 6.5 4H9.5C9.76514 4.00026 10.0193 4.10571 10.2068 4.29319C10.3943 4.48066 10.4997 4.73486 10.5 5V9Z" fill="#4A94BD"/>
<path d="M7.5 8H8.5V9H7.5V8ZM7.5 6H8.5V7H7.5V6Z" fill="#4A94BD"/>
</svg>
