<svg width="120" height="20" viewBox="0 0 120 20" fill="none" xmlns="http://www.w3.org/2000/svg">
<mask id="path-1-inside-1_7871_274" fill="white">
<path fill-rule="evenodd" clip-rule="evenodd" d="M15.9639 13.8663C15.9529 13.9134 15.9429 13.9562 15.9429 13.999C16.732 12.8086 17.1265 11.4278 17.1265 9.90411C17.1265 7.6662 16.3375 5.80921 14.7593 4.28553C13.1812 2.76184 11.3072 2 9.08793 2C7.65774 2 6.27688 2.33331 5.04396 3.04753C3.81105 3.76176 2.82472 4.71406 2.08497 5.90444C1.34522 7.09482 1 8.42804 1 9.85649C1 11.9992 1.69043 13.7609 3.26856 15.3322C4.8467 16.9035 6.77005 17.6654 9.08793 17.6654C11.3072 17.6654 13.1812 16.9035 14.7593 15.3799C14.7782 15.3617 14.7898 15.3435 14.7998 15.3279C14.8057 15.3186 14.8111 15.3102 14.817 15.3034C14.6272 15.3861 14.3973 15.4275 14.1675 15.4275C13.6744 15.4275 13.2305 15.2846 12.8853 14.9037C12.5401 14.5704 12.3921 14.1895 12.3428 13.7609C11.4551 14.5228 10.3702 14.9037 9.13724 14.9037C7.90433 14.9037 6.77004 14.5228 5.83303 13.7609C4.60011 12.8086 4.00831 11.523 4.00831 9.85649C4.00831 8.38043 4.5508 7.14243 5.48781 6.19013C6.42483 5.23783 7.65774 4.76168 9.08793 4.76168C10.4688 4.76168 11.7017 5.23783 12.688 6.23775C13.6744 7.23766 14.1675 8.42804 14.1675 9.85649C14.1675 10.5707 14.0196 11.285 13.773 11.9039C13.921 11.8563 14.0196 11.8563 14.1675 11.8563C14.6607 11.8563 15.1046 12.0468 15.4498 12.3801C15.795 12.761 15.9923 13.1896 15.9923 13.6657C15.9923 13.7443 15.9773 13.8086 15.9639 13.8663Z"/>
</mask>
<path fill-rule="evenodd" clip-rule="evenodd" d="M15.9639 13.8663C15.9529 13.9134 15.9429 13.9562 15.9429 13.999C16.732 12.8086 17.1265 11.4278 17.1265 9.90411C17.1265 7.6662 16.3375 5.80921 14.7593 4.28553C13.1812 2.76184 11.3072 2 9.08793 2C7.65774 2 6.27688 2.33331 5.04396 3.04753C3.81105 3.76176 2.82472 4.71406 2.08497 5.90444C1.34522 7.09482 1 8.42804 1 9.85649C1 11.9992 1.69043 13.7609 3.26856 15.3322C4.8467 16.9035 6.77005 17.6654 9.08793 17.6654C11.3072 17.6654 13.1812 16.9035 14.7593 15.3799C14.7782 15.3617 14.7898 15.3435 14.7998 15.3279C14.8057 15.3186 14.8111 15.3102 14.817 15.3034C14.6272 15.3861 14.3973 15.4275 14.1675 15.4275C13.6744 15.4275 13.2305 15.2846 12.8853 14.9037C12.5401 14.5704 12.3921 14.1895 12.3428 13.7609C11.4551 14.5228 10.3702 14.9037 9.13724 14.9037C7.90433 14.9037 6.77004 14.5228 5.83303 13.7609C4.60011 12.8086 4.00831 11.523 4.00831 9.85649C4.00831 8.38043 4.5508 7.14243 5.48781 6.19013C6.42483 5.23783 7.65774 4.76168 9.08793 4.76168C10.4688 4.76168 11.7017 5.23783 12.688 6.23775C13.6744 7.23766 14.1675 8.42804 14.1675 9.85649C14.1675 10.5707 14.0196 11.285 13.773 11.9039C13.921 11.8563 14.0196 11.8563 14.1675 11.8563C14.6607 11.8563 15.1046 12.0468 15.4498 12.3801C15.795 12.761 15.9923 13.1896 15.9923 13.6657C15.9923 13.7443 15.9773 13.8086 15.9639 13.8663Z" fill="#282830"/>
<path d="M15.9429 13.999H15.0688V16.8999L16.6716 14.482L15.9429 13.999ZM15.9639 13.8663L15.1125 13.6681L15.1125 13.6681L15.9639 13.8663ZM14.7593 4.28553L14.1522 4.9144V4.9144L14.7593 4.28553ZM5.04396 3.04753L5.48215 3.80393V3.80393L5.04396 3.04753ZM2.08497 5.90444L2.82743 6.36584L2.08497 5.90444ZM3.26856 15.3322L2.65179 15.9517H2.65179L3.26856 15.3322ZM14.7593 15.3799L14.1522 14.751L14.1522 14.751L14.7593 15.3799ZM14.7998 15.3279L14.0635 14.8567L14.0635 14.8567L14.7998 15.3279ZM14.817 15.3034L15.4772 15.8764L14.4679 14.502L14.817 15.3034ZM12.8853 14.9037L13.533 14.3167L13.5135 14.2951L13.4925 14.2748L12.8853 14.9037ZM12.3428 13.7609L13.2112 13.661L13.023 12.0253L11.7735 13.0976L12.3428 13.7609ZM5.83303 13.7609L6.38449 13.0827L6.37602 13.0758L6.36739 13.0691L5.83303 13.7609ZM5.48781 6.19013L6.11091 6.80323V6.80323L5.48781 6.19013ZM12.688 6.23775L12.0657 6.85162L12.0657 6.85162L12.688 6.23775ZM13.773 11.9039L12.9609 11.5804L12.2741 13.3047L14.0408 12.7361L13.773 11.9039ZM15.4498 12.3801L16.0975 11.7931L16.0779 11.7715L16.0569 11.7512L15.4498 12.3801ZM16.8171 13.999C16.8171 14.0446 16.8118 14.0767 16.8102 14.0858C16.8094 14.0906 16.809 14.092 16.8099 14.0879C16.8109 14.0832 16.8123 14.0773 16.8153 14.0645L15.1125 13.6681C15.1065 13.694 15.0688 13.8376 15.0688 13.999H16.8171ZM16.2524 9.90411C16.2524 11.271 15.9005 12.4809 15.2143 13.516L16.6716 14.482C17.5635 13.1364 18.0007 11.5846 18.0007 9.90411H16.2524ZM14.1522 4.9144C15.5579 6.27163 16.2524 7.90086 16.2524 9.90411H18.0007C18.0007 7.43154 17.1171 5.34679 15.3665 3.65665L14.1522 4.9144ZM9.08793 2.87415C11.0808 2.87415 12.7371 3.54814 14.1522 4.9144L15.3665 3.65665C13.6253 1.97555 11.5336 1.12585 9.08793 1.12585V2.87415ZM5.48215 3.80393C6.56838 3.17468 7.7952 2.87415 9.08793 2.87415V1.12585C7.52029 1.12585 5.98537 1.49193 4.60578 2.29113L5.48215 3.80393ZM2.82743 6.36584C3.49018 5.29936 4.37117 4.44752 5.48215 3.80393L4.60578 2.29113C3.25093 3.076 2.15925 4.12876 1.3425 5.44304L2.82743 6.36584ZM1.87415 9.85649C1.87415 8.57405 2.18234 7.4039 2.82743 6.36584L1.3425 5.44304C0.508092 6.78574 0.125845 8.28203 0.125845 9.85649H1.87415ZM3.88534 14.7128C2.47701 13.3105 1.87415 11.7739 1.87415 9.85649H0.125845C0.125845 12.2245 0.903854 14.2113 2.65179 15.9517L3.88534 14.7128ZM9.08793 16.7912C6.98673 16.7912 5.28965 16.111 3.88534 14.7128L2.65179 15.9517C4.40374 17.6961 6.55336 18.5395 9.08793 18.5395V16.7912ZM14.1522 14.751C12.7371 16.1172 11.0808 16.7912 9.08793 16.7912V18.5395C11.5336 18.5395 13.6253 17.6898 15.3665 16.0087L14.1522 14.751ZM14.0635 14.8567C14.0544 14.871 14.0901 14.8109 14.1522 14.751L15.3665 16.0087C15.4662 15.9124 15.5253 15.816 15.536 15.7992L14.0635 14.8567ZM14.1569 14.7304C14.1247 14.7675 14.1014 14.8001 14.0882 14.8194C14.0757 14.8375 14.0649 14.8545 14.0635 14.8567L15.536 15.7992C15.5406 15.792 15.5355 15.8002 15.5287 15.8101C15.5211 15.8211 15.5034 15.8462 15.4772 15.8764L14.1569 14.7304ZM14.1675 16.3016C14.4932 16.3016 14.8459 16.2443 15.1661 16.1048L14.4679 14.502C14.4084 14.5279 14.3014 14.5533 14.1675 14.5533V16.3016ZM12.2376 15.4907C12.7879 16.098 13.4931 16.3016 14.1675 16.3016V14.5533C13.8556 14.5533 13.6732 14.4713 13.533 14.3167L12.2376 15.4907ZM11.4744 13.8609C11.5419 14.4478 11.7589 15.0312 12.2781 15.5326L13.4925 14.2748C13.3213 14.1095 13.2423 13.9311 13.2112 13.661L11.4744 13.8609ZM9.13724 15.7779C10.5621 15.7779 11.8535 15.3328 12.9121 14.4243L11.7735 13.0976C11.0567 13.7128 10.1782 14.0295 9.13724 14.0295V15.7779ZM5.28157 14.4392C6.3845 15.3359 7.71682 15.7779 9.13724 15.7779V14.0295C8.09184 14.0295 7.15559 13.7096 6.38449 13.0827L5.28157 14.4392ZM3.13416 9.85649C3.13416 11.7662 3.83053 13.3188 5.29867 14.4528L6.36739 13.0691C5.3697 12.2985 4.88247 11.2798 4.88247 9.85649H3.13416ZM4.86471 5.57703C3.76893 6.69069 3.13416 8.14803 3.13416 9.85649H4.88247C4.88247 8.61283 5.33266 7.59418 6.11091 6.80323L4.86471 5.57703ZM9.08793 3.88752C7.45112 3.88752 5.98449 4.43898 4.86471 5.57703L6.11091 6.80323C6.86517 6.03667 7.86437 5.63583 9.08793 5.63583V3.88752ZM13.3104 5.62387C12.1491 4.44658 10.687 3.88752 9.08793 3.88752V5.63583C10.2506 5.63583 11.2543 6.02907 12.0657 6.85162L13.3104 5.62387ZM15.0417 9.85649C15.0417 8.19829 14.4581 6.78738 13.3104 5.62387L12.0657 6.85162C12.8907 7.68795 13.2934 8.65779 13.2934 9.85649H15.0417ZM14.5851 12.2275C14.8707 11.5105 15.0417 10.6867 15.0417 9.85649H13.2934C13.2934 10.4547 13.1685 11.0594 12.9609 11.5804L14.5851 12.2275ZM14.1675 10.9822C14.012 10.9822 13.7938 10.979 13.5052 11.0718L14.0408 12.7361C14.0458 12.7345 14.0491 12.7335 14.0509 12.7331C14.0518 12.7328 14.0525 12.7326 14.0528 12.7326C14.053 12.7325 14.0532 12.7325 14.0533 12.7325C14.0533 12.7325 14.0534 12.7324 14.0534 12.7324C14.0534 12.7324 14.0533 12.7325 14.0533 12.7325C14.0532 12.7325 14.0532 12.7325 14.0531 12.7325C14.0529 12.7325 14.0528 12.7326 14.0527 12.7326C14.0524 12.7326 14.0528 12.7325 14.0543 12.7324C14.0574 12.7321 14.0657 12.7314 14.0844 12.731C14.1048 12.7305 14.1283 12.7305 14.1675 12.7305V10.9822ZM16.0569 11.7512C15.5564 11.268 14.8977 10.9822 14.1675 10.9822V12.7305C14.4237 12.7305 14.6527 12.8256 14.8426 13.009L16.0569 11.7512ZM16.8664 13.6657C16.8664 12.926 16.5538 12.2966 16.0975 11.7931L14.802 12.9671C15.0362 13.2255 15.1181 13.4531 15.1181 13.6657H16.8664ZM16.8153 14.0645C16.8284 14.0078 16.8664 13.8555 16.8664 13.6657H15.1181C15.1181 13.6332 15.1262 13.6093 15.1125 13.6681L16.8153 14.0645Z" fill="#282830" mask="url(#path-1-inside-1_7871_274)"/>
<path d="M17.126 18.0001C18.1616 18.0001 19 17.1906 19 16.1907C19 15.1908 18.1616 14.3813 17.126 14.3813C16.0903 14.3813 15.2519 15.1908 15.2519 16.1907C15.2519 17.1906 16.0903 18.0001 17.126 18.0001Z" fill="#0B9BD7"/>
<path d="M29.9384 4.89072H25.8572V3.21582H36.1705V4.89072H32.0893V15.7506H29.9384V4.89072Z" fill="#252323"/>
<path d="M39.9201 14.3461C38.9274 13.3196 38.431 11.6987 38.431 9.48349C38.431 7.21427 38.9274 5.5934 39.9201 4.56685C40.9128 3.54029 42.4571 3 44.4977 3C46.5383 3 48.0825 3.54029 49.0752 4.56685C50.068 5.5934 50.5643 7.2683 50.5643 9.48349C50.5643 11.6987 50.068 13.2655 49.0752 14.3461C48.0825 15.3727 46.5383 15.913 44.4977 15.913C42.4571 15.913 40.9128 15.4267 39.9201 14.3461ZM47.4207 13.0494C48.0273 12.347 48.3583 11.1584 48.3583 9.48349C48.3583 7.80859 48.0273 6.56592 47.4207 5.86354C46.814 5.16117 45.8213 4.78296 44.4425 4.78296C43.1189 4.78296 42.1261 5.16117 41.5195 5.86354C40.9128 6.56592 40.5819 7.80859 40.5819 9.48349C40.5819 11.1044 40.9128 12.293 41.5195 12.9954C42.1261 13.7518 43.1189 14.076 44.4425 14.076C45.8213 14.13 46.814 13.8058 47.4207 13.0494Z" fill="#252323"/>
<path d="M54.6456 3.21582H60.5468C61.9256 3.21582 62.9734 3.53999 63.6353 4.24237C64.2971 4.94475 64.628 5.91728 64.628 7.21398C64.628 8.13247 64.4074 8.88888 63.9662 9.4832C63.525 10.0775 62.8631 10.5098 62.0359 10.7799C62.2565 10.942 62.4219 11.1041 62.5874 11.3202C62.7528 11.5363 62.8631 11.7524 63.0286 12.1306L64.628 15.7506H62.4219L60.8777 12.2387C60.7122 11.9145 60.5468 11.6444 60.3262 11.5363C60.1056 11.4282 59.7747 11.3202 59.3335 11.3202H56.9068V15.7506H54.7559V3.21582H54.6456ZM59.9401 9.59126C61.5947 9.59126 62.4771 8.78082 62.4771 7.21398C62.4771 5.64713 61.705 4.83669 60.1607 4.83669H56.8516V9.59126H59.9401Z" fill="#252323"/>
<path d="M73.0122 15.8589C71.3576 15.6968 70.0892 15.0485 69.2619 14.0219C68.4346 12.9954 68.0486 11.4826 68.0486 9.48349C68.0486 7.21427 68.5449 5.5934 69.5376 4.56685C70.5304 3.54029 72.0746 3 74.1152 3C76.1558 3 77.7 3.54029 78.6928 4.56685C79.6855 5.5934 80.1819 7.2683 80.1819 9.48349C80.1819 11.5366 79.7406 13.0494 78.9134 14.076C78.031 15.1025 76.7625 15.6968 74.9976 15.8589C74.9976 16.4533 75.1079 16.8855 75.3285 17.1016C75.5491 17.3177 75.9352 17.4258 76.4316 17.4258C76.9279 17.4258 77.3691 17.3717 77.8655 17.2097V18.7765C77.6449 18.8305 77.3691 18.8846 77.0382 18.9386C76.7073 18.9926 76.3764 18.9926 76.0455 18.9926C74.0049 19.1007 73.0673 18.0201 73.0122 15.8589ZM77.0382 13.0494C77.6449 12.347 77.9758 11.1584 77.9758 9.48349C77.9758 7.80859 77.6449 6.56592 77.0382 5.86354C76.4316 5.16117 75.4388 4.78296 74.0601 4.78296C72.7364 4.78296 71.7437 5.16117 71.137 5.86354C70.5304 6.56592 70.1995 7.80859 70.1995 9.48349C70.1995 11.1044 70.5304 12.293 71.137 12.9954C71.7437 13.7518 72.7364 14.076 74.0601 14.076C75.4388 14.13 76.4316 13.8058 77.0382 13.0494Z" fill="#252323"/>
<path d="M85.2006 14.67C84.2079 13.8596 83.7667 12.6169 83.7667 11.05V3.21582H85.9176V10.996C85.9176 12.0226 86.1933 12.833 86.8 13.3193C87.4067 13.8055 88.2339 14.1297 89.337 14.1297C90.44 14.1297 91.2673 13.8596 91.8188 13.3193C92.4254 12.779 92.7012 12.0226 92.7012 10.996V3.21582H94.8521V11.1041C94.8521 12.6709 94.3557 13.8596 93.4182 14.724C92.4806 15.5345 91.1018 15.9667 89.337 15.9667C87.5721 15.9127 86.1933 15.5345 85.2006 14.67Z" fill="#252323"/>
<path d="M99.2084 3.21582H108.143V4.89072H101.414V8.67276H107.426V10.2936H101.414V14.1297H108.143V15.7506H99.2084V3.21582Z" fill="#252323"/>
</svg>
