<?xml version="1.0" encoding="UTF-8"?> <svg xmlns="http://www.w3.org/2000/svg" width="141" height="31" viewBox="0 0 141 31" fill="none"><path d="M28.1922 30.5163H4.20297C1.95398 30.5163 0.113892 28.6762 0.113892 26.4272V4.2099C0.113892 1.9609 1.95398 0.120819 4.20297 0.120819H28.1922C30.4412 0.120819 32.2813 1.9609 32.2813 4.2099V26.4272C32.2813 28.6762 30.4412 30.5163 28.1922 30.5163Z" fill="#282830"></path><path d="M26.8291 26.8362C28.2603 26.8362 29.4189 25.6776 29.4189 24.2464C29.4189 22.8153 28.2603 21.6567 26.8291 21.6567C25.398 21.6567 24.2394 22.8153 24.2394 24.2464C24.2394 25.6776 25.398 26.8362 26.8291 26.8362Z" fill="#0B9BD7"></path><path d="M20.9 22.5426C20.4911 22.0655 20.2185 21.5203 20.1503 20.9069C18.9236 21.9974 17.4243 22.5426 15.7205 22.5426C14.0167 22.5426 12.5174 21.9974 11.1544 20.9069C9.45057 19.5439 8.63275 17.6357 8.63275 15.3185C8.63275 13.2059 9.31427 11.4339 10.6773 10.0709C12.0403 8.70787 13.6759 8.02636 15.6523 8.02636C17.6287 8.02636 19.2644 8.70787 20.6274 10.139C21.9904 11.5702 22.6719 13.274 22.6719 15.3185C22.6719 16.409 22.4675 17.3631 22.1267 18.249C22.263 18.1809 22.4675 18.1809 22.6719 18.1809C23.3534 18.1809 23.9668 18.4535 24.4438 18.9306C24.9209 19.4076 25.1935 20.021 25.1935 20.7706C25.1935 20.9069 25.1935 21.0433 25.1254 21.2477C26.2158 19.5439 26.761 17.5675 26.761 15.3185C26.761 12.1836 25.6706 9.45753 23.4897 7.27669C21.3089 5.09585 18.7191 4.00543 15.6523 4.00543C13.6759 4.00543 11.7677 4.48249 10.0639 5.50476C8.36015 6.52703 6.99712 7.89006 5.97485 9.59384C5.02074 11.2976 4.47552 13.2059 4.47552 15.2504C4.47552 18.3172 5.56595 20.9751 7.67864 23.1559C9.79133 25.4049 12.4492 26.4954 15.7205 26.4954C18.7873 26.4954 21.377 25.4049 23.5579 23.2241C23.5579 23.1559 23.626 23.1559 23.6942 23.0878C23.4216 23.2241 23.0808 23.2922 22.7401 23.2922C22.0586 23.2922 21.4452 23.0196 20.9 22.5426Z" fill="#F4F4F4"></path><path d="M43.867 11.0252H38.8238V8.91248H51.5681V11.0252H46.5249V24.7236H43.867V11.0252Z" fill="#282830"></path><path d="M56.2024 23.0197C54.9757 21.7249 54.3623 19.6803 54.3623 16.8861C54.3623 14.0238 54.9757 11.9792 56.2024 10.6844C57.4291 9.38949 59.3373 8.70798 61.8589 8.70798C64.3805 8.70798 66.2888 9.38949 67.5155 10.6844C68.7422 11.9792 69.3556 14.0919 69.3556 16.8861C69.3556 19.6803 68.7422 21.6567 67.5155 23.0197C66.2888 24.3146 64.3805 24.9961 61.8589 24.9961C59.3373 24.9961 57.4291 24.3146 56.2024 23.0197ZM65.471 21.3841C66.2206 20.4981 66.6295 18.9988 66.6295 16.8861C66.6295 14.7734 66.2206 13.206 65.471 12.32C64.7213 11.434 63.4946 10.957 61.7908 10.957C60.1552 10.957 58.9284 11.434 58.1788 12.32C57.4291 13.206 57.0202 14.7734 57.0202 16.8861C57.0202 18.9307 57.4291 20.43 58.1788 21.316C58.9284 22.2701 60.1552 22.679 61.7908 22.679C63.4946 22.7471 64.7213 22.2701 65.471 21.3841Z" fill="#282830"></path><path d="M74.3987 8.91248H81.6228C83.3266 8.91248 84.6214 9.32138 85.4393 10.2073C86.2571 11.0933 86.666 12.32 86.666 13.9557C86.666 15.1142 86.3934 16.0684 85.8482 16.818C85.3029 17.5677 84.4851 18.1129 83.4629 18.4537C83.7355 18.6581 83.9399 18.8626 84.1444 19.1352C84.3488 19.4078 84.4851 19.6804 84.6896 20.1574L86.666 24.7236H83.9399L82.0317 20.2937C81.8272 19.8848 81.6228 19.5441 81.3502 19.4078C81.0776 19.2715 80.6687 19.1352 80.1235 19.1352H77.1248V24.7236H74.4669V8.91248H74.3987ZM80.9413 16.9543C82.9858 16.9543 84.0762 15.9321 84.0762 13.9557C84.0762 11.9793 83.1221 10.957 81.2139 10.957H77.1248V16.8862H80.9413V16.9543Z" fill="#282830"></path><path d="M97.0931 24.928C95.0486 24.7235 93.4811 23.9057 92.4589 22.6108C91.4366 21.316 90.9595 19.4077 90.9595 16.8861C90.9595 14.0238 91.5729 11.9792 92.7996 10.6844C94.0263 9.38949 95.9346 8.70798 98.4562 8.70798C100.978 8.70798 102.886 9.38949 104.113 10.6844C105.339 11.9792 105.953 14.0919 105.953 16.8861C105.953 19.4759 105.408 21.3841 104.385 22.679C103.295 23.9739 101.727 24.7235 99.5466 24.928C99.5466 25.6776 99.6829 26.2229 99.9555 26.4955C100.228 26.7681 100.705 26.9044 101.319 26.9044C101.932 26.9044 102.477 26.8362 103.09 26.6318V28.6081C102.818 28.6763 102.477 28.7445 102.068 28.8126C101.659 28.8808 101.25 28.8808 100.841 28.8808C98.3199 28.9489 97.0931 27.5859 97.0931 24.928ZM102.068 21.3841C102.818 20.4981 103.227 18.9988 103.227 16.8861C103.227 14.7734 102.818 13.206 102.068 12.32C101.319 11.434 100.092 10.957 98.388 10.957C96.7524 10.957 95.5257 11.434 94.776 12.32C94.0263 13.206 93.6174 14.7734 93.6174 16.8861C93.6174 18.9307 94.0263 20.43 94.776 21.316C95.5257 22.2701 96.7524 22.679 98.388 22.679C100.092 22.7471 101.319 22.2701 102.068 21.3841Z" fill="#282830"></path><path d="M112.155 23.4287C110.928 22.4064 110.383 20.8389 110.383 18.8626V8.91248H113.041V18.7263C113.041 20.0211 113.381 21.0434 114.131 21.6568C114.881 22.2701 115.903 22.679 117.266 22.679C118.629 22.679 119.651 22.3383 120.333 21.6568C121.082 20.9753 121.423 20.0211 121.423 18.7263V8.91248H124.081V18.8626C124.081 20.8389 123.468 22.3383 122.309 23.4287C121.151 24.451 119.447 24.9962 117.266 24.9962C115.017 24.9962 113.313 24.451 112.155 23.4287Z" fill="#282830"></path><path d="M129.465 8.91248H140.505V11.0252H132.191V15.7958H139.551V17.8403H132.123V22.679H140.437V24.7236H129.397V8.91248H129.465Z" fill="#282830"></path></svg> 